<?xml version="1.0" encoding="UTF-8" standalone="no"?>
<!-- Created with Inkscape (http://www.inkscape.org/) -->

<svg
   width="56.501827mm"
   height="5.8234563mm"
   viewBox="0 0 56.501827 5.8234563"
   version="1.1"
   id="svg1"
   sodipodi:docname="logo.svg"
   inkscape:version="1.3.2 (091e20e, 2023-11-25, custom)"
   xmlns:inkscape="http://www.inkscape.org/namespaces/inkscape"
   xmlns:sodipodi="http://sodipodi.sourceforge.net/DTD/sodipodi-0.dtd"
   xmlns="http://www.w3.org/2000/svg"
   xmlns:svg="http://www.w3.org/2000/svg">
  <sodipodi:namedview
     id="namedview1"
     pagecolor="#ffffff"
     bordercolor="#000000"
     borderopacity="0.25"
     inkscape:showpageshadow="2"
     inkscape:pageopacity="0.0"
     inkscape:pagecheckerboard="0"
     inkscape:deskcolor="#d1d1d1"
     inkscape:document-units="mm"
     inkscape:zoom="2.1041947"
     inkscape:cx="155.16625"
     inkscape:cy="90.058206"
     inkscape:window-width="1802"
     inkscape:window-height="1259"
     inkscape:window-x="1567"
     inkscape:window-y="63"
     inkscape:window-maximized="0"
     inkscape:current-layer="layer1" />
  <defs
     id="defs1">
    <rect
       x="77.939552"
       y="232.86818"
       width="327.91641"
       height="171.08682"
       id="rect1" />
  </defs>
  <g
     inkscape:label="Layer 1"
     inkscape:groupmode="layer"
     id="layer1"
     transform="translate(-73.884191,-5.6909705)">
    <text
       xml:space="preserve"
       transform="scale(0.26458333)"
       id="text1"
       style="font-size:18.6667px;white-space:pre;shape-inside:url(#rect1);display:inline;fill:#000000" />
    <text
       xml:space="preserve"
       style="font-style:normal;font-variant:normal;font-weight:normal;font-stretch:normal;font-size:4.9389px;font-family:'HoloLens MDL2 Assets';-inkscape-font-specification:'HoloLens MDL2 Assets';fill:#000000;stroke-width:0.264583"
       x="42.233315"
       y="67.662216"
       id="text2"><tspan
         sodipodi:role="line"
         id="tspan2"
         style="stroke-width:0.264583"
         x="42.233315"
         y="67.662216" /></text>
    <path
       d="M 74.424753,9.8576775 V 11.514427 H 73.884191 V 6.9970845 h 0.540562 v 0.41784 q 0.134409,-0.242522 0.356478,-0.368167 0.224991,-0.128565 0.517186,-0.128565 0.593156,0 0.929181,0.458747 0.338948,0.458745 0.338948,1.27105 0,0.797693 -0.338948,1.253518 -0.338946,0.4529035 -0.929181,0.4529035 -0.298039,0 -0.523029,-0.125645 -0.22207,-0.128565 -0.350635,-0.3710885 z m 1.577855,-1.221377 q 0,-0.625297 -0.198693,-0.943791 -0.19577,-0.318493 -0.58439,-0.318493 -0.391543,0 -0.593157,0.321415 -0.201615,0.318493 -0.201615,0.940869 0,0.619455 0.201615,0.94087 0.201614,0.321415 0.593157,0.321415 0.38862,0 0.58439,-0.318493 0.198693,-0.318493 0.198693,-0.943792 z m 4.304039,-0.964245 q -0.172396,-0.134409 -0.350635,-0.19577 -0.178239,-0.06136 -0.391541,-0.06136 -0.502577,0 -0.768475,0.315571 -0.265897,0.315572 -0.265897,0.91165 V 10.269675 H 77.989537 V 6.9970855 h 0.540562 v 0.639909 q 0.134409,-0.347713 0.411996,-0.531796 0.280507,-0.187005 0.663283,-0.187005 0.198693,0 0.371088,0.04968 0.172395,0.04968 0.330181,0.154864 z m 2.027836,-0.298039 q -0.409073,0 -0.619454,0.318493 -0.21038,0.318494 -0.21038,0.943791 0,0.622377 0.21038,0.943792 0.210381,0.318493 0.619454,0.318493 0.411996,0 0.622376,-0.318493 0.210381,-0.321415 0.210381,-0.943792 0,-0.625297 -0.210381,-0.943791 -0.21038,-0.318493 -0.622376,-0.318493 z m 0,-0.455824 q 0.680815,0 1.040216,0.441214 0.362323,0.441216 0.362323,1.276894 0,0.838602 -0.359402,1.279817 -0.359399,0.4382935 -1.043137,0.4382935 -0.680815,0 -1.040216,-0.4382935 -0.3594,-0.441215 -0.3594,-1.279817 0,-0.835678 0.3594,-1.276894 0.359401,-0.441214 1.040216,-0.441214 z m 4.4852,1.718108 q 0,-0.625297 -0.198693,-0.943791 -0.198693,-0.318493 -0.587313,-0.318493 -0.391541,0 -0.593157,0.321415 -0.201614,0.318493 -0.201614,0.940869 0,0.619455 0.201614,0.94087 0.201616,0.321415 0.593157,0.321415 0.38862,0 0.587313,-0.318493 0.198693,-0.318493 0.198693,-0.943792 z m -1.580777,-1.221376 q 0.128566,-0.239601 0.353556,-0.368167 0.227913,-0.128565 0.525952,-0.128565 0.590234,0 0.929181,0.455824 0.338947,0.452903 0.338947,1.250597 0,0.809382 -0.341869,1.27105 -0.338946,0.4587475 -0.932103,0.4587475 -0.292195,0 -0.517187,-0.125645 -0.222068,-0.128565 -0.356477,-0.3710885 V 10.269674 H 84.701265 V 5.7231125 h 0.537641 z m 4.552404,1.209689 h -0.178238 q -0.470436,0 -0.710036,0.166552 -0.236678,0.163629 -0.236678,0.490888 0,0.295117 0.178239,0.458747 0.17824,0.163629 0.493811,0.163629 0.444137,0 0.698346,-0.306805 0.254211,-0.309728 0.257133,-0.853212 v -0.119794 z m 1.043139,-0.222068 V 10.269674 H 90.293887 V 9.7846285 q -0.172396,0.2921965 -0.435371,0.4324505 -0.260054,0.137332 -0.634065,0.137332 -0.499653,0 -0.797693,-0.280508 -0.298039,-0.2834305 -0.298039,-0.7567865 0,-0.546405 0.365244,-0.829835 0.368166,-0.283429 1.0782,-0.283429 h 0.721724 v -0.08474 q -0.0029,-0.391542 -0.198693,-0.566859 -0.195771,-0.17824 -0.625299,-0.17824 -0.274663,0 -0.55517,0.07889 -0.280508,0.07889 -0.546406,0.230834 v -0.53764 q 0.298039,-0.113955 0.569781,-0.169473 0.274664,-0.05844 0.531795,-0.05844 0.406152,0 0.692504,0.119795 0.289274,0.119795 0.467513,0.359401 0.111035,0.146097 0.157786,0.362323 0.04675,0.213301 0.04675,0.64283 z m 3.190774,0.233755 q 0,-0.625297 -0.198693,-0.943791 -0.198693,-0.318493 -0.587313,-0.318493 -0.391542,0 -0.593156,0.321415 -0.201616,0.318493 -0.201616,0.940869 0,0.619455 0.201616,0.94087 0.201614,0.321415 0.593156,0.321415 0.38862,0 0.587313,-0.318493 0.198693,-0.318493 0.198693,-0.943792 z m -1.580778,-1.221376 q 0.128566,-0.239601 0.353556,-0.368167 0.227913,-0.128565 0.525952,-0.128565 0.590235,0 0.929182,0.455824 0.338947,0.452903 0.338947,1.250597 0,0.809382 -0.341869,1.27105 -0.338947,0.4587475 -0.932104,0.4587475 -0.292195,0 -0.517185,-0.125645 -0.222068,-0.128565 -0.356479,-0.3710885 V 10.269674 H 91.906806 V 5.7231125 h 0.537639 z m 4.368321,1.668436 q 0,0.362322 0.131489,0.546405 0.134409,0.184083 0.394463,0.184083 h 0.62822 v 0.4558255 h -0.680815 q -0.482123,0 -0.748021,-0.3097275 -0.262975,-0.309727 -0.262975,-0.876586 V 6.1117325 H 95.41315 v -0.420762 h 1.399616 z m 4.242674,0.134409 q -0.13441,0.341869 -0.34187,0.8999625 -0.28927,0.771397 -0.38861,0.94087 -0.13441,0.227912 -0.336029,0.341869 -0.201615,0.113954 -0.470435,0.113954 h -0.432449 v -0.44998 h 0.318493 q 0.236678,0 0.371088,-0.137332 0.13441,-0.137332 0.341872,-0.710035 L 98.852291,6.9970835 h 0.569781 l 0.970088,2.559633 0.95548,-2.559633 h 0.56978 z m 3.14695,-0.593156 h -0.17824 q -0.47043,0 -0.71003,0.166552 -0.23668,0.163629 -0.23668,0.490888 0,0.295117 0.17824,0.458747 0.17823,0.163629 0.49381,0.163629 0.44413,0 0.69834,-0.306805 0.25421,-0.309728 0.25714,-0.853212 v -0.119794 z m 1.04314,-0.222068 v 1.8671285 h -0.54056 V 9.7846285 q -0.1724,0.2921965 -0.43538,0.4324505 -0.26005,0.137332 -0.63406,0.137332 -0.49965,0 -0.79769,-0.280508 -0.29804,-0.2834305 -0.29804,-0.7567865 0,-0.546405 0.36524,-0.829835 0.36817,-0.283429 1.0782,-0.283429 h 0.72173 v -0.08474 q -0.003,-0.391542 -0.1987,-0.566859 -0.19577,-0.17824 -0.6253,-0.17824 -0.27466,0 -0.55517,0.07889 -0.28051,0.07889 -0.5464,0.230834 v -0.53764 q 0.29804,-0.113955 0.56978,-0.169473 0.27466,-0.05844 0.53179,-0.05844 0.40616,0 0.69251,0.119795 0.28927,0.119795 0.46751,0.359401 0.11103,0.146097 0.15779,0.362323 0.0468,0.213301 0.0468,0.64283 z m 3.19077,0.233755 q 0,-0.625297 -0.19869,-0.943791 -0.19869,-0.318493 -0.58731,-0.318493 -0.39155,0 -0.59316,0.321415 -0.20162,0.318493 -0.20162,0.940869 0,0.619455 0.20162,0.94087 0.20161,0.321415 0.59316,0.321415 0.38862,0 0.58731,-0.318493 0.19869,-0.318493 0.19869,-0.943792 z m -1.58078,-1.221376 q 0.12857,-0.239601 0.35356,-0.368167 0.22791,-0.128565 0.52595,-0.128565 0.59024,0 0.92918,0.455824 0.33895,0.452903 0.33895,1.250597 0,0.809382 -0.34187,1.27105 -0.33894,0.4587475 -0.9321,0.4587475 -0.2922,0 -0.51719,-0.125645 -0.22207,-0.128565 -0.35648,-0.3710885 v 0.4119965 h -0.53764 V 5.7231125 h 0.53764 z m 4.30112,-0.0409 q -0.40907,0 -0.61945,0.318492 -0.21038,0.318494 -0.21038,0.943792 0,0.622376 0.21038,0.943791 0.21038,0.318494 0.61945,0.318494 0.412,0 0.62238,-0.318494 0.21038,-0.321415 0.21038,-0.943791 0,-0.625298 -0.21038,-0.943792 -0.21038,-0.318492 -0.62238,-0.318492 z m 0,-0.455825 q 0.68082,0 1.04022,0.441215 0.36232,0.441215 0.36232,1.276894 0,0.838601 -0.3594,1.279816 -0.3594,0.4382935 -1.04314,0.4382935 -0.68081,0 -1.04022,-0.4382935 -0.3594,-0.441215 -0.3594,-1.279816 0,-0.835679 0.3594,-1.276894 0.35941,-0.441215 1.04022,-0.441215 z m 3.59692,-0.850289 v 0.929181 h 1.22138 v 0.41784 h -1.22138 v 1.776548 q 0,0.362323 0.13734,0.505498 0.13733,0.143176 0.4792,0.143176 h 0.60484 v 0.4295275 h -0.65744 q -0.60484,0 -0.85321,-0.242521 -0.24837,-0.2425235 -0.24837,-0.8356805 v -1.77655 h -0.87366 v -0.41784 h 0.87366 v -0.929182 z m 3.23753,3.310575 h 0.73633 v 0.8911955 h -0.73633 z m 5.2449,-1.136641 v 2.0278365 h -0.54056 V 8.2418445 q 0,-0.441215 -0.15486,-0.648674 -0.15486,-0.207459 -0.48505,-0.207459 -0.37693,0 -0.58146,0.26882 -0.20162,0.265898 -0.20162,0.765552 V 10.269681 H 120.7348 V 6.9970915 h 0.53764 v 0.490888 q 0.14318,-0.280507 0.38862,-0.423683 0.24545,-0.146097 0.58147,-0.146097 0.49965,0 0.7451,0.33018 0.24836,0.32726 0.24836,0.993465 z m 3.78101,0.257132 v 0.262976 h -2.32879 v 0.01753 q 0,0.534718 0.27758,0.826913 0.28051,0.292196 0.78893,0.292196 0.25713,0 0.53764,-0.08182 0.28051,-0.08181 0.599,-0.248365 v 0.5347185 q -0.30681,0.125643 -0.59316,0.187004 -0.28343,0.06429 -0.54932,0.06429 -0.76263,0 -1.19216,-0.4558255 -0.42953,-0.458747 -0.42953,-1.262285 0,-0.783083 0.42076,-1.250597 0.42076,-0.467512 1.12203,-0.467512 0.6253,0 0.9847,0.423684 0.36232,0.423683 0.36232,1.157093 z m -0.53764,-0.157786 q -0.0116,-0.473356 -0.22499,-0.7188 -0.21038,-0.248366 -0.60776,-0.248366 -0.38862,0 -0.63991,0.257131 -0.25129,0.257133 -0.29804,0.712957 z m 2.68528,-2.27328 v 0.929181 h 1.22138 v 0.41784 h -1.22138 v 1.776548 q 0,0.362323 0.13733,0.505498 0.13733,0.143176 0.4792,0.143176 h 0.60485 v 0.4295275 h -0.65744 q -0.60485,0 -0.85321,-0.242521 Q 128.627,9.7846365 128.627,9.1914795 v -1.77655 h -0.87366 v -0.41784 h 0.87366 v -0.929182 z"
       id="text3"
       style="font-size:4.9389px;font-family:Monospace;-inkscape-font-specification:Monospace;fill:#86ffb6;fill-opacity:1;stroke-width:0.320579"
       aria-label="probablyabot.net" />
  </g>
</svg>
