<?xml version="1.0" encoding="UTF-8" standalone="no"?>
<!-- Created with Inkscape (http://www.inkscape.org/) -->

<svg
   width="56.501827mm"
   height="5.8234563mm"
   viewBox="0 0 56.501827 5.8234563"
   version="1.1"
   id="svg1"
   sodipodi:docname="logo.svg"
   inkscape:version="1.3.2 (091e20e, 2023-11-25, custom)"
   xmlns:inkscape="http://www.inkscape.org/namespaces/inkscape"
   xmlns:sodipodi="http://sodipodi.sourceforge.net/DTD/sodipodi-0.dtd"
   xmlns="http://www.w3.org/2000/svg"
   xmlns:svg="http://www.w3.org/2000/svg">
  <sodipodi:namedview
     id="namedview1"
     pagecolor="#ffffff"
     bordercolor="#000000"
     borderopacity="0.25"
     inkscape:showpageshadow="2"
     inkscape:pageopacity="0.0"
     inkscape:pagecheckerboard="0"
     inkscape:deskcolor="#d1d1d1"
     inkscape:document-units="mm"
     inkscape:zoom="2.9757807"
     inkscape:cx="118.79236"
     inkscape:cy="65.697046"
     inkscape:window-width="1802"
     inkscape:window-height="1259"
     inkscape:window-x="1567"
     inkscape:window-y="63"
     inkscape:window-maximized="0"
     inkscape:current-layer="layer1" />
  <defs
     id="defs1">
    <rect
       x="0.33604627"
       y="0.67209254"
       width="213.72543"
       height="21.170915"
       id="rect4" />
    <rect
       x="-0.47524119"
       y="0.47524119"
       width="214.33378"
       height="22.336336"
       id="rect3" />
    <rect
       x="77.939552"
       y="232.86818"
       width="327.91641"
       height="171.08682"
       id="rect1" />
  </defs>
  <g
     inkscape:label="Layer 1"
     inkscape:groupmode="layer"
     id="layer1"
     transform="translate(-73.884191,-5.6909705)">
    <text
       xml:space="preserve"
       transform="scale(0.26458333)"
       id="text1"
       style="font-size:18.6667px;white-space:pre;shape-inside:url(#rect1);display:inline;fill:#000000" />
    <text
       xml:space="preserve"
       style="font-style:normal;font-variant:normal;font-weight:normal;font-stretch:normal;font-size:4.9389px;font-family:'HoloLens MDL2 Assets';-inkscape-font-specification:'HoloLens MDL2 Assets';fill:#000000;stroke-width:0.264583"
       x="42.233315"
       y="67.662216"
       id="text2"><tspan
         sodipodi:role="line"
         id="tspan2"
         style="stroke-width:0.264583"
         x="42.233315"
         y="67.662216" /></text>
    <text
       xml:space="preserve"
       transform="matrix(0.26458333,0,0,0.26458333,73.884191,5.6909705)"
       id="text3"
       style="font-size:18.6667px;font-family:Monospace;-inkscape-font-specification:Monospace;white-space:pre;shape-inside:url(#rect3);display:inline;fill:#16ef6d" />
    <path
       d="M 76.359554,9.8352328 V 11.354747 H 75.853869 V 7.2115927 h 0.505685 V 7.594821 q 0.125738,-0.2224332 0.333479,-0.3376697 0.210474,-0.1179164 0.483817,-0.1179164 0.554887,0 0.869232,0.4207472 0.317079,0.4207471 0.317079,1.1657643 0,0.7316177 -0.317079,1.1496847 -0.317078,0.4153879 -0.869232,0.4153879 -0.27881,0 -0.489284,-0.115237 -0.207741,-0.117916 -0.328012,-0.3403492 z m 1.476054,-1.1202059 q 0,-0.5735027 -0.185874,-0.8656137 -0.18314,-0.2921111 -0.546686,-0.2921111 -0.36628,0 -0.554887,0.294791 -0.188607,0.2921112 -0.188607,0.8629338 0,0.5681425 0.188607,0.8629335 0.188607,0.2947911 0.554887,0.2947911 0.363546,0 0.546686,-0.2921113 0.185874,-0.292111 0.185874,-0.8656133 z m 4.026348,-0.8843731 q -0.161273,-0.1232762 -0.328012,-0.1795545 -0.16674,-0.056279 -0.36628,-0.056279 -0.470151,0 -0.718894,0.2894311 -0.248742,0.2894311 -0.248742,0.8361346 v 1.492715 H 79.694343 V 7.2115927 h 0.505685 v 0.5869021 q 0.125738,-0.3189103 0.385414,-0.4877451 0.26241,-0.1715148 0.62049,-0.1715148 0.185873,0 0.347146,0.045558 0.161272,0.045558 0.308878,0.1420356 z m 1.897003,-0.2733517 q -0.382681,0 -0.579488,0.2921111 -0.196807,0.292111 -0.196807,0.8656137 0,0.5708223 0.196807,0.8656133 0.196807,0.2921113 0.579488,0.2921113 0.385414,0 0.582221,-0.2921113 0.196807,-0.294791 0.196807,-0.8656133 0,-0.5735027 -0.196807,-0.8656137 -0.196807,-0.2921111 -0.582221,-0.2921111 z m 0,-0.4180672 q 0.63689,0 0.973102,0.4046677 0.338946,0.4046676 0.338946,1.1711243 0,0.7691364 -0.336212,1.1738039 -0.336213,0.4019882 -0.975836,0.4019882 -0.63689,0 -0.973103,-0.4019882 -0.336212,-0.4046675 -0.336212,-1.1738039 0,-0.7664567 0.336212,-1.1711243 0.336213,-0.4046677 0.973103,-0.4046677 z m 4.195821,1.575792 q 0,-0.5735027 -0.185874,-0.8656137 -0.185873,-0.2921111 -0.54942,-0.2921111 -0.36628,0 -0.554887,0.294791 -0.188607,0.2921112 -0.188607,0.8629338 0,0.5681425 0.188607,0.8629335 0.188607,0.2947911 0.554887,0.2947911 0.363547,0 0.54942,-0.2921113 0.185874,-0.292111 0.185874,-0.8656133 z M 86.475992,7.594821 q 0.120271,-0.2197533 0.330746,-0.3376697 0.213207,-0.1179164 0.492018,-0.1179164 0.552153,0 0.869232,0.4180672 0.317078,0.4153873 0.317078,1.147005 0,0.7423371 -0.319812,1.1657639 -0.317078,0.420748 -0.871965,0.420748 -0.273344,0 -0.483818,-0.115237 Q 86.60173,10.057666 86.475992,9.8352328 V 10.213101 H 85.97304 V 6.0431484 h 0.502952 z m 4.25869,1.1094861 h -0.16674 q -0.440083,0 -0.664224,0.1527552 -0.221408,0.1500755 -0.221408,0.4502263 0,0.2706718 0.166739,0.4207471 0.166739,0.1500759 0.46195,0.1500759 0.415482,0 0.653291,-0.2813918 0.237809,-0.2840714 0.240542,-0.782536 V 8.7043071 Z M 91.710517,8.5006334 V 10.213101 H 91.204832 V 9.7682344 q -0.161273,0.2679926 -0.407282,0.3966286 -0.243275,0.125956 -0.593155,0.125956 -0.467417,0 -0.746227,-0.257272 -0.27881,-0.2599527 -0.27881,-0.6940994 0,-0.5011447 0.341679,-0.7610966 0.344413,-0.2599521 1.008637,-0.2599521 h 0.675158 v -0.077718 q -0.0027,-0.3591088 -0.185873,-0.519904 -0.18314,-0.163475 -0.584955,-0.163475 -0.256943,0 -0.519353,0.072358 -0.262409,0.072358 -0.511152,0.2117134 V 7.3482685 q 0.278811,-0.1045168 0.53302,-0.1554351 0.256943,-0.053598 0.497485,-0.053598 0.379947,0 0.647824,0.1098766 0.270609,0.1098767 0.437349,0.32963 0.103871,0.1339959 0.147605,0.3323098 0.04374,0.195634 0.04374,0.5895821 z m 2.98491,0.2143935 q 0,-0.5735027 -0.185874,-0.8656137 -0.185873,-0.2921111 -0.54942,-0.2921111 -0.36628,0 -0.554887,0.294791 -0.188607,0.2921112 -0.188607,0.8629338 0,0.5681425 0.188607,0.8629335 0.188607,0.2947911 0.554887,0.2947911 0.363547,0 0.54942,-0.2921113 0.185874,-0.292111 0.185874,-0.8656133 z M 93.216639,7.594821 q 0.120271,-0.2197533 0.330746,-0.3376697 0.213207,-0.1179164 0.492018,-0.1179164 0.552153,0 0.869231,0.4180672 0.317079,0.4153873 0.317079,1.147005 0,0.7423371 -0.319812,1.1657639 -0.317078,0.420748 -0.871965,0.420748 -0.273344,0 -0.483818,-0.115237 -0.207741,-0.117916 -0.333479,-0.3403492 V 10.213101 H 92.713687 V 6.0431484 h 0.502952 z m 4.305159,1.5329131 q 0,0.3323098 0.123004,0.5011447 0.125738,0.1688353 0.369014,0.1688353 h 0.587688 v 0.4153869 h -0.63689 q -0.451016,0 -0.699759,-0.2813913 Q 97.018846,9.6476381 97.018846,9.1277341 V 6.4129772 H 96.212483 V 6.0270689 h 1.309315 z m 3.750272,0.1205963 q -0.12574,0.3135504 -0.31981,0.8254146 -0.27061,0.707499 -0.36355,0.862935 -0.12574,0.209033 -0.31435,0.313549 -0.1886,0.104518 -0.440079,0.104518 h -0.404548 v -0.412708 h 0.297944 q 0.221409,0 0.347143,-0.125956 0.12574,-0.125956 0.31981,-0.65122 L 99.211059,7.2115927 h 0.533019 l 0.907502,2.3476081 0.89383,-2.3476081 h 0.53302 z m 2.94391,-0.5440233 h -0.16674 q -0.44008,0 -0.66423,0.1527552 -0.2214,0.1500755 -0.2214,0.4502263 0,0.2706718 0.16674,0.4207471 0.16674,0.1500759 0.46195,0.1500759 0.41548,0 0.65329,-0.2813918 0.23781,-0.2840714 0.24054,-0.782536 V 8.7043071 Z m 0.97584,-0.2036737 v 1.7124676 h -0.50569 V 9.7682344 q -0.16127,0.2679926 -0.40728,0.3966286 -0.24328,0.125956 -0.59316,0.125956 -0.46741,0 -0.74622,-0.257272 -0.27881,-0.2599527 -0.27881,-0.6940994 0,-0.5011447 0.34167,-0.7610966 0.34442,-0.2599521 1.00864,-0.2599521 h 0.67516 v -0.077718 q -0.003,-0.3591088 -0.18587,-0.519904 -0.18314,-0.163475 -0.58496,-0.163475 -0.25694,0 -0.51935,0.072358 -0.26241,0.072358 -0.51115,0.2117134 V 7.3482685 q 0.27881,-0.1045168 0.53302,-0.1554351 0.25694,-0.053598 0.49748,-0.053598 0.37995,0 0.64783,0.1098766 0.27061,0.1098767 0.43735,0.32963 0.10387,0.1339959 0.1476,0.3323098 0.0437,0.195634 0.0437,0.5895821 z m 2.98491,0.2143935 q 0,-0.5735027 -0.18588,-0.8656137 -0.18587,-0.2921111 -0.54941,-0.2921111 -0.36629,0 -0.55489,0.294791 -0.18861,0.2921112 -0.18861,0.8629338 0,0.5681425 0.18861,0.8629335 0.1886,0.2947911 0.55489,0.2947911 0.36354,0 0.54941,-0.2921113 0.18588,-0.292111 0.18588,-0.8656133 z M 106.69794,7.594821 q 0.12027,-0.2197533 0.33075,-0.3376697 0.2132,-0.1179164 0.49201,-0.1179164 0.55216,0 0.86924,0.4180672 0.31708,0.4153873 0.31708,1.147005 0,0.7423371 -0.31982,1.1657639 -0.31707,0.420748 -0.87196,0.420748 -0.27335,0 -0.48382,-0.115237 -0.20774,-0.117916 -0.33348,-0.3403492 v 0.3778682 h -0.50295 V 6.0431484 h 0.50295 z m 4.02361,-0.037519 q -0.38268,0 -0.57948,0.2921111 -0.19681,0.292111 -0.19681,0.8656137 0,0.5708222 0.19681,0.8656133 0.1968,0.2921111 0.57948,0.2921111 0.38542,0 0.58223,-0.2921111 0.1968,-0.2947911 0.1968,-0.8656133 0,-0.5735027 -0.1968,-0.8656137 -0.19681,-0.2921111 -0.58223,-0.2921111 z m 0,-0.4180672 q 0.63689,0 0.97311,0.4046676 0.33894,0.4046677 0.33894,1.1711244 0,0.7691364 -0.33621,1.1738037 -0.33621,0.4019885 -0.97584,0.4019885 -0.63689,0 -0.9731,-0.4019885 -0.33621,-0.4046673 -0.33621,-1.1738037 0,-0.7664567 0.33621,-1.1711244 0.33621,-0.4046676 0.9731,-0.4046676 z m 3.36486,-0.7798561 v 0.8522139 h 1.14258 v 0.3832283 h -1.14258 v 1.62939 q 0,0.33231 0.12847,0.4636259 0.12847,0.1313164 0.44829,0.1313164 h 0.56582 v 0.3939478 h -0.61503 q -0.56582,0 -0.79816,-0.222433 -0.23234,-0.2224337 -0.23234,-0.7664571 V 7.594821 h -0.8173 V 7.2115927 h 0.8173 V 6.3593788 Z m 2.75531,2.7710351 h 0.96216 v 1.0826872 h -0.96216 z m 5.17985,-0.7771759 v 1.8598631 h -0.50568 V 8.353238 q 0,-0.4046678 -0.14488,-0.594942 -0.14487,-0.1902742 -0.45375,-0.1902742 -0.35261,0 -0.54395,0.2465525 -0.18861,0.2438726 -0.18861,0.7021385 v 1.6963882 h -0.50295 V 7.2115927 h 0.50295 V 7.661819 q 0.13394,-0.2572722 0.36355,-0.3885882 0.22961,-0.1339959 0.54395,-0.1339959 0.46742,0 0.69703,0.3028308 0.23234,0.3001508 0.23234,0.9111722 z m 3.55893,0.1125564 v 0.2411926 h -2.17855 v 0.01608 q -0.0219,0.6137014 0.23781,0.8816932 0.26241,0.2679918 0.73803,0.2679918 0.24054,0 0.50295,-0.075036 0.26241,-0.075037 0.56035,-0.2277924 v 0.4904245 q -0.28701,0.115237 -0.55488,0.171516 -0.26515,0.05896 -0.51389,0.05896 -0.71342,0 -1.11524,-0.4180678 -0.40181,-0.4207474 -0.40181,-1.1577246 0,-0.7182182 0.39361,-1.1470051 0.39361,-0.4287868 1.04964,-0.4287868 0.58495,0 0.92116,0.3885881 0.33895,0.3885881 0.36082,0.9379714 z m -0.50295,-0.1447157 q -0.0328,-0.3108704 -0.23235,-0.5359836 -0.1968,-0.227793 -0.56855,-0.227793 -0.36354,0 -0.59862,0.2358328 -0.23508,0.2358328 -0.25694,0.5306238 z m 2.49016,-1.9616999 v 0.8522139 h 1.14257 v 0.3832283 h -1.14257 v 1.62939 q 0,0.33231 0.12847,0.4636259 0.12847,0.1313164 0.44828,0.1313164 h 0.56582 v 0.3939478 h -0.61502 q -0.56582,0 -0.79816,-0.222433 -0.23234,-0.2224337 -0.23234,-0.7664571 V 7.594821 h -0.8173 V 7.2115927 h 0.8173 V 6.3593788 Z"
       id="text4"
       style="font-size:18.6667px;font-family:Menlo;-inkscape-font-specification:Menlo;white-space:pre;fill:#16ef6d;stroke-width:0.296946"
       aria-label="probablyabot.net" />
  </g>
</svg>
